# xmcd
#
# Track frame offsets:
#	150
#	17317
#	31265
#	47245
#	49940
#	63142
#	78072
#	80002
#	91907
#	113375
#	129382
#	150250
#	152495
#	169072
#	188722
#	210585
#
# Disc length: 3015 seconds
#
# Revision: 4
# Processed by: cddbd v1.5.2PL0 Copyright (c) Steve Scherf et al.
# Submitted via: audiograbber 1.83.01
#
DISCID=ad0bc510
DTITLE=Queen Pen - Conversations With Queen
DYEAR=2001
DGENRE=Rap
TTITLE0=Queen Pen, Kory Ward - Warn U feat Kory Ward
TTITLE1=Queen Pen - Pussy Aint For Free
TTITLE2=Queen Pen, Cam'ron, DJ Clue, Prodigy - I Reps
TTITLE3=Queen Pen - QP Camron Skit
TTITLE4=Queen Pen - QP Walks
TTITLE5=Queen Pen, Miss Jones - Ghetto Divorce
TTITLE6=Queen Pen - QP Miss Jones Skit
TTITLE7=Queen Pen, Teddy Riley - I Got Cha
TTITLE8=Queen Pen, Stephen Marley - Revolution
TTITLE9=Queen Pen - For You
TTITLE10=Queen Pen - Baby Daddy
TTITLE11=Queen Pen - QP 563 Skit
TTITLE12=Queen Pen - Cold Cold World
TTITLE13=Queen Pen, Chico Debarge - It's True
TTITLE14=Queen Pen, A.M.I.L. - What Ya'll Wanna Hear
TTITLE15=Queen Pen - Who's The (Bonus Track)
EXTD=www.RapMusicGuide.com
EXTT0=
EXTT1=
EXTT2=
EXTT3=
EXTT4=
EXTT5=
EXTT6=
EXTT7=
EXTT8=
EXTT9=
EXTT10=
EXTT11=
EXTT12=
EXTT13=
EXTT14=
EXTT15=
PLAYORDER=
